<?xml version="1.0" standalone="no"?><!DOCTYPE svg PUBLIC "-//W3C//DTD SVG 1.1//EN" "http://www.w3.org/Graphics/SVG/1.1/DTD/svg11.dtd"><svg t="1687066535644" class="icon" viewBox="0 0 1024 1024" version="1.1" xmlns="http://www.w3.org/2000/svg" p-id="20725" xmlns:xlink="http://www.w3.org/1999/xlink" width="200" height="200"><path d="M0 511.2a512 511.2 0 1 0 1024 0 512 511.2 0 1 0-1024 0Z" fill="#A7FCD0" p-id="20726"></path><path d="M840 1024H144c-4.8 0-8-3.2-8-8s3.2-8 8-8h696c4.8 0 8 3.2 8 8s-3.2 8-8 8z" fill="#233E49" p-id="20727"></path><path d="M761.6 1016h-528l24-488h480z" fill="#415E6D" p-id="20728"></path><path d="M257.6 526.4l-24 488h104l24-488z" fill="#2D4552" p-id="20729"></path><path d="M744 672l-6.4-144h-480l-6.4 144z" fill="#FBD000" p-id="20730"></path><path d="M355.2 670.4l6.4-144h-104l-6.4 144z" fill="#F4B10B" p-id="20731"></path><path d="M291.477 324.487402a220 91.2 81.136 1 0 180.221574-28.105944 220 91.2 81.136 1 0-180.221574 28.105944Z" fill="#FFFFFF" p-id="20732"></path><path d="M768 1024H232c-2.4 0-4-0.8-5.6-2.4-1.6-1.6-2.4-4-2.4-5.6l24-488c0-4 4-8 8-8h487.2c4 0 8 3.2 8 8l24 486.4v1.6c0.8 4.8-3.2 8-7.2 8z m-527.2-16h518.4L736 536H264l-23.2 472z" fill="#233E49" p-id="20733"></path><path d="M321.6 432c25.6 64 61.6 100 94.4 95.2 28.8-4.8 49.6-39.2 58.4-95.2H321.6z" fill="#EAEAEA" p-id="20734"></path><path d="M410.4 536.8c-53.6 0-108-91.2-127.2-212.8-9.6-60-8-117.6 2.4-162.4 11.2-47.2 33.6-76 60.8-80.8 2.4 0 4.8-0.8 7.2-0.8 53.6 0 108 91.2 127.2 212.8 9.6 60 8 117.6-2.4 162.4-11.2 47.2-33.6 76-60.8 80.8-1.6 0-4 0.8-7.2 0.8z m-56-440.8h-4.8c-20.8 3.2-37.6 28-48 68-10.4 43.2-11.2 98.4-2.4 156 17.6 113.6 70.4 205.6 116 198.4 20.8-3.2 37.6-28 48-68 10.4-43.2 11.2-98.4 2.4-156C448.8 185.6 399.2 96 354.4 96z" fill="#233E49" p-id="20735"></path><path d="M424.8 337.6c-13.6-84-43.2-148.8-65.6-145.6-22.4 3.2-30.4 74.4-16.8 158.4C356 434.4 385.6 499.2 408 496c23.2-3.2 30.4-74.4 16.8-158.4z" fill="#D3D1D1" p-id="20736"></path><path d="M582.241096 528.240983a91.2 220 8.864 1 0 67.799425-434.745026 91.2 220 8.864 1 0-67.799425 434.745026Z" fill="#FFFFFF" p-id="20737"></path><path d="M676.8 432c-25.6 64-61.6 100-94.4 95.2-28.8-4.8-49.6-39.2-58.4-95.2h152.8z" fill="#EAEAEA" p-id="20738"></path><path d="M588 536.8c-2.4-0.8-4.8 0-7.2-0.8-27.2-4-48.8-32.8-60-80.8-11.2-44.8-12-103.2-2.4-162.4C536.8 171.2 591.2 80 644 80c2.4 0 4.8 0 7.2 0.8 27.2 4 48.8 32.8 60 80.8 11.2 44.8 12 103.2 2.4 162.4-18.4 120.8-72.8 212.8-125.6 212.8z m56-440.8C600 96 551.2 185.6 533.6 295.2c-8.8 57.6-8 112.8 2.4 156 9.6 40 27.2 64.8 47.2 68 44.8 7.2 96.8-84.8 114.4-198.4 8.8-57.6 8-112.8-2.4-156-9.6-40-27.2-64.8-47.2-68-0.8-0.8-2.4-0.8-4-0.8z" fill="#233E49" p-id="20739"></path><path d="M634.4 193.6c-20.8-3.2-48 61.6-60 144.8-12.8 83.2-5.6 153.6 15.2 157.6 20.8 3.2 48-61.6 60-144.8 12.8-84 5.6-154.4-15.2-157.6z" fill="#D3D1D1" p-id="20740"></path><path d="M840 528c0 17.6-14.4 32-32 32H168c-17.6 0-32-14.4-32-32v-16c0-17.6 14.4-32 32-32h640c17.6 0 32 14.4 32 32v16z" fill="#415E6D" p-id="20741"></path><path d="M809.6 520h-640c-13.6 0-25.6-8.8-30.4-20.8-1.6 4-3.2 7.2-3.2 11.2v16c0 17.6 16 32.8 33.6 32.8h640c17.6 0 30.4-15.2 30.4-32.8v-16c0-4 0-8-1.6-11.2-4.8 12-15.2 20.8-28.8 20.8z" fill="#2D4552" p-id="20742"></path><path d="M808 568H168c-22.4 0-40-17.6-40-40v-16c0-22.4 17.6-40 40-40h640c22.4 0 40 17.6 40 40v16c0 22.4-17.6 40-40 40zM168 488c-13.6 0-24 10.4-24 24v16c0 13.6 10.4 24 24 24h640c13.6 0 24-10.4 24-24v-16c0-13.6-10.4-24-24-24H168z" fill="#233E49" p-id="20743"></path><path d="M784 512h-72c-4.8 0-8-3.2-8-8s3.2-8 8-8h72c4.8 0 8 3.2 8 8s-3.2 8-8 8zM616 512H272c-4.8 0-8-3.2-8-8s3.2-8 8-8h344c4.8 0 8 3.2 8 8s-3.2 8-8 8zM712 968c-4 0-8-3.2-8-7.2l-16-248c0-4 3.2-8 7.2-8.8 4.8 0 8 3.2 8.8 7.2l16 248c0 4.8-3.2 8.8-8 8.8 0.8 0 0 0 0 0z" fill="#FFFFFF" p-id="20744"></path><path d="M856 808c-17.6 0-32-14.4-32-32s14.4-32 32-32 32 14.4 32 32-14.4 32-32 32z m0-48.8c-9.6 0-17.6 8-17.6 16.8 0 9.6 8 16.8 17.6 16.8s17.6-8 17.6-16.8c-0.8-9.6-8.8-16.8-17.6-16.8zM192.8 360c-17.6 0-31.2-14.4-31.2-32s14.4-32 31.2-32c17.6 0 31.2 14.4 31.2 32s-14.4 32-31.2 32z m0-48.8c-9.6 0-16.8 8-16.8 16.8 0 9.6 7.2 16.8 16.8 16.8s16.8-8 16.8-16.8c0-9.6-8-16.8-16.8-16.8zM757.6 298.4c0-3.2 3.2-6.4 8-7.2l15.2-2.4c4-0.8 8.8-4.8 8.8-8.8l2.4-15.2c0.8-4 4-8 7.2-8s6.4 3.2 7.2 8l1.6 15.2c0.8 4 4.8 8.8 8.8 8.8l15.2 2.4c4 0.8 8 4 8 7.2s-3.2 6.4-8 7.2l-15.2 2.4c-4 0.8-8.8 4.8-8.8 8.8l-2.4 15.2c-0.8 4-4 8-7.2 8s-6.4-3.2-7.2-8l-2.4-16.8c-0.8-4-4.8-8-8.8-8.8l-14.4-0.8c-4.8-1.6-8-4-8-7.2zM88.8 655.2c0-3.2 3.2-6.4 8-7.2l15.2-2.4c4-0.8 8.8-4.8 8.8-8.8l2.4-15.2c0.8-4 4-8 7.2-8s6.4 3.2 7.2 8l2.4 15.2c0.8 4 4.8 8.8 8.8 8.8l15.2 2.4c4 0.8 8 4 8 7.2s-3.2 6.4-8 7.2l-16 1.6c-4 0.8-8.8 4.8-8.8 8.8l-2.4 15.2c-0.8 4-4 8-7.2 8s-6.4-3.2-7.2-8l-2.4-16.8c-0.8-4-4.8-8-8.8-8.8l-14.4-0.8c-4-0.8-8-3.2-8-6.4zM886.4 569.6c0-3.2 3.2-6.4 8-7.2l15.2-2.4c4-0.8 8.8-4.8 8.8-8.8l2.4-15.2c0.8-4 4-8 7.2-8s6.4 3.2 7.2 8l2.4 15.2c0.8 4 4.8 8.8 8.8 8.8l15.2 2.4c4 0.8 8 4 8 7.2s-3.2 6.4-8 7.2l-15.2 2.4c-4 0.8-8.8 4.8-8.8 8.8l-2.4 15.2c-0.8 4-4 8-7.2 8s-6.4-3.2-7.2-8l-2.4-16.8c-0.8-4-4.8-8-8.8-8.8l-14.4-0.8c-5.6-1.6-8.8-4-8.8-7.2z" fill="#FFFFFF" p-id="20745"></path></svg>